<svg id="visual" viewBox="0 0 900 600" width="900" height="600" xmlns="http://www.w3.org/2000/svg" xmlns:xlink="http://www.w3.org/1999/xlink" version="1.1"><rect width="900" height="600" fill="#0d070e"></rect><g><g transform="translate(683 426)"><path d="M0 -40.2L34.8 -20.1L34.8 20.1L0 40.2L-34.8 20.1L-34.8 -20.1Z" fill="#7b1f80"></path></g><g transform="translate(497 133)"><path d="M0 -35L30.3 -17.5L30.3 17.5L0 35L-30.3 17.5L-30.3 -17.5Z" fill="#7b1f80"></path></g><g transform="translate(383 215)"><path d="M0 -14L12.1 -7L12.1 7L0 14L-12.1 7L-12.1 -7Z" fill="#7b1f80"></path></g><g transform="translate(177 95)"><path d="M0 -10L8.7 -5L8.7 5L0 10L-8.7 5L-8.7 -5Z" fill="#7b1f80"></path></g><g transform="translate(361 377)"><path d="M0 -22L19.1 -11L19.1 11L0 22L-19.1 11L-19.1 -11Z" fill="#7b1f80"></path></g><g transform="translate(812 79)"><path d="M0 -16L13.9 -8L13.9 8L0 16L-13.9 8L-13.9 -8Z" fill="#7b1f80"></path></g><g transform="translate(801 255)"><path d="M0 -21L18.2 -10.5L18.2 10.5L0 21L-18.2 10.5L-18.2 -10.5Z" fill="#7b1f80"></path></g><g transform="translate(41 557)"><path d="M0 -33L28.6 -16.5L28.6 16.5L0 33L-28.6 16.5L-28.6 -16.5Z" fill="#7b1f80"></path></g><g transform="translate(244 293)"><path d="M0 -17L14.7 -8.5L14.7 8.5L0 17L-14.7 8.5L-14.7 -8.5Z" fill="#7b1f80"></path></g><g transform="translate(647 332)"><path d="M0 -32L27.7 -16L27.7 16L0 32L-27.7 16L-27.7 -16Z" fill="#7b1f80"></path></g><g transform="translate(112 492)"><path d="M0 -37L32 -18.5L32 18.5L0 37L-32 18.5L-32 -18.5Z" fill="#7b1f80"></path></g><g transform="translate(436 497)"><path d="M0 -26L22.5 -13L22.5 13L0 26L-22.5 13L-22.5 -13Z" fill="#7b1f80"></path></g><g transform="translate(304 143)"><path d="M0 -27L23.4 -13.5L23.4 13.5L0 27L-23.4 13.5L-23.4 -13.5Z" fill="#7b1f80"></path></g><g transform="translate(150 260)"><path d="M0 -34L29.4 -17L29.4 17L0 34L-29.4 17L-29.4 -17Z" fill="#7b1f80"></path></g><g transform="translate(71 297)"><path d="M0 -16L13.9 -8L13.9 8L0 16L-13.9 8L-13.9 -8Z" fill="#7b1f80"></path></g><g transform="translate(853 536)"><path d="M0 -13L11.3 -6.5L11.3 6.5L0 13L-11.3 6.5L-11.3 -6.5Z" fill="#7b1f80"></path></g><g transform="translate(47 62)"><path d="M0 -28L24.2 -14L24.2 14L0 28L-24.2 14L-24.2 -14Z" fill="#7b1f80"></path></g><g transform="translate(522 526)"><path d="M0 -22L19.1 -11L19.1 11L0 22L-19.1 11L-19.1 -11Z" fill="#7b1f80"></path></g><g transform="translate(706 252)"><path d="M0 -7L6.1 -3.5L6.1 3.5L0 7L-6.1 3.5L-6.1 -3.5Z" fill="#7b1f80"></path></g><g transform="translate(346 497)"><path d="M0 -6L5.2 -3L5.2 3L0 6L-5.2 3L-5.2 -3Z" fill="#7b1f80"></path></g></g></svg>